<svg width="16" height="16" viewBox="0 0 16 16" fill="none" xmlns="http://www.w3.org/2000/svg">
<path d="M8 16C12.4 16 16 12.4 16 8C16 3.6 12.4 0 8 0C3.6 0 0 3.6 0 8C0 12.4 3.6 16 8 16ZM8.24 4.232C8.4 4.088 8.592 4 8.8 4C9.016 4 9.2 4.088 9.368 4.232C9.52 4.4 9.6 4.592 9.6 4.8C9.6 5.016 9.52 5.2 9.368 5.368C9.2 5.52 9.016 5.6 8.8 5.6C8.592 5.6 8.4 5.52 8.24 5.368C8.088 5.2 8 5.016 8 4.8C8 4.592 8.088 4.4 8.24 4.232ZM6.24 7.976C6.24 7.976 7.976 6.6 8.608 6.544C9.2 6.496 9.08 7.176 9.024 7.528L9.016 7.576C8.904 8 8.768 8.512 8.632 9C8.328 10.112 8.032 11.2 8.104 11.4C8.184 11.672 8.68 11.328 9.04 11.088C9.088 11.056 9.128 11.024 9.168 11C9.168 11 9.232 10.936 9.296 11.024C9.312 11.048 9.328 11.072 9.344 11.088C9.416 11.2 9.456 11.24 9.36 11.304L9.328 11.32C9.152 11.44 8.4 11.968 8.096 12.16C7.768 12.376 6.512 13.096 6.704 11.696C6.872 10.712 7.096 9.864 7.272 9.2C7.6 8 7.744 7.456 7.008 7.928C6.712 8.104 6.536 8.216 6.432 8.288C6.344 8.352 6.336 8.352 6.28 8.248L6.256 8.2L6.216 8.136C6.16 8.056 6.16 8.048 6.24 7.976Z" fill="#192B46"/>
</svg>
