<svg width="15" height="9" viewBox="0 0 15 9" fill="none" xmlns="http://www.w3.org/2000/svg">
<path d="M1 5.20005C3.52003 -0.400017 11.0801 -0.400017 13.6002 5.20005" stroke="#192B46" stroke-width="1.5" stroke-linecap="round" stroke-linejoin="round"/>
<path d="M7.30022 7.99986C7.02444 7.99986 6.75136 7.94554 6.49658 7.84C6.24179 7.73447 6.01028 7.57978 5.81528 7.38477C5.62027 7.18977 5.46559 6.95826 5.36005 6.70348C5.25451 6.44869 5.2002 6.17561 5.2002 5.89983C5.2002 5.62405 5.25451 5.35097 5.36005 5.09619C5.46559 4.8414 5.62027 4.60989 5.81528 4.41489C6.01028 4.21988 6.24179 4.0652 6.49658 3.95966C6.75136 3.85412 7.02444 3.7998 7.30022 3.7998C7.85718 3.7998 8.39133 4.02106 8.78516 4.41489C9.17899 4.80872 9.40025 5.34287 9.40025 5.89983C9.40025 6.45679 9.17899 6.99094 8.78516 7.38477C8.39133 7.7786 7.85718 7.99986 7.30022 7.99986Z" stroke="#192B46" stroke-width="1.5" stroke-linecap="round" stroke-linejoin="round"/>
</svg>
