<svg width="16" height="18" viewBox="0 0 16 18" fill="none" xmlns="http://www.w3.org/2000/svg">
<path d="M8 3.64252e-09C9.37989 -5.12794e-05 10.7061 0.541409 11.7 1.51062C12.6939 2.47983 13.278 3.80134 13.3298 5.1975L13.3333 5.4H14.2222C14.6707 5.39986 15.1027 5.57137 15.4316 5.88015C15.7605 6.18893 15.9619 6.61216 15.9956 7.065L16 7.2V16.2C16.0001 16.6541 15.8308 17.0915 15.5258 17.4245C15.2208 17.7575 14.8028 17.9614 14.3556 17.9955L14.2222 18H1.77778C1.32927 18.0001 0.897274 17.8286 0.568402 17.5199C0.23953 17.2111 0.038083 16.7878 0.00444464 16.335L8.91271e-08 16.2V7.2C-0.000141848 6.74588 0.16925 6.30849 0.47422 5.97551C0.779189 5.64252 1.1972 5.43856 1.64444 5.4045L1.77778 5.4H2.66667C2.66667 3.96783 3.22857 2.59432 4.22876 1.58162C5.22896 0.568927 6.58551 3.64252e-09 8 3.64252e-09ZM14.2222 7.2H1.77778V16.2H14.2222V7.2ZM8 9C8.37919 9.00012 8.74841 9.123 9.05372 9.35068C9.35904 9.57837 9.58446 9.89893 9.69704 10.2655C9.80963 10.6322 9.80349 11.0256 9.67953 11.3885C9.55556 11.7513 9.32026 12.0645 9.008 12.2823L8.88889 12.3588V13.5C8.88864 13.7294 8.80189 13.95 8.64636 14.1168C8.49083 14.2836 8.27826 14.384 8.05209 14.3975C7.82592 14.4109 7.60322 14.3364 7.42948 14.1892C7.25575 14.0419 7.14409 13.8331 7.11733 13.6053L7.11111 13.5V12.3588C6.77221 12.1607 6.50736 11.8549 6.35761 11.4888C6.20786 11.1227 6.18159 10.7168 6.28288 10.3341C6.38416 9.95139 6.60734 9.6132 6.91781 9.37199C7.22827 9.13077 7.60866 9.00002 8 9ZM8 1.8C7.05701 1.8 6.15264 2.17928 5.48584 2.85442C4.81905 3.52955 4.44444 4.44522 4.44444 5.4H11.5556C11.5556 4.44522 11.181 3.52955 10.5142 2.85442C9.84736 2.17928 8.94299 1.8 8 1.8Z" fill="#192B46"/>
</svg>
