<svg width="18" height="15" viewBox="0 0 18 15" fill="none" xmlns="http://www.w3.org/2000/svg">
<path d="M13.1538 6.81818H6.23056V0.681818C6.23056 0.500989 6.3035 0.327566 6.43333 0.1997C6.56317 0.0718343 6.73926 0 6.92288 0H17.3077C17.4913 0 17.6674 0.0718343 17.7972 0.1997C17.9271 0.327566 18 0.500989 18 0.681818V14.3182C18 14.499 17.9271 14.6724 17.7972 14.8003C17.6674 14.9282 17.4913 15 17.3077 15H6.92288C6.73926 15 6.56317 14.9282 6.43333 14.8003C6.3035 14.6724 6.23056 14.499 6.23056 14.3182V8.18182H13.1538V6.81818ZM0.202616 7.01804L4.1536 3.12656L5.1328 4.09091L2.36352 6.81818H6.23056V8.18182H2.36352L5.1328 10.9091L4.1536 11.8734L0.202616 7.98196C0.0728779 7.85411 0 7.68075 0 7.5C0 7.31925 0.0728779 7.14589 0.202616 7.01804Z" fill="#192B46"/>
</svg>
