<svg width="20" height="20" viewBox="0 0 20 20" fill="none" xmlns="http://www.w3.org/2000/svg">
<path d="M12.825 4.3415L13.9999 6.6915C14.1583 7.0165 14.5833 7.32484 14.9416 7.3915L17.0666 7.74151C18.425 7.96651 18.7416 8.94984 17.7666 9.93317L16.1083 11.5915C15.8333 11.8665 15.675 12.4082 15.7666 12.7998L16.2416 14.8498C16.6166 16.4665 15.75 17.0998 14.325 16.2498L12.3333 15.0665C11.9749 14.8498 11.375 14.8498 11.0166 15.0665L9.02495 16.2498C7.59995 17.0915 6.73329 16.4665 7.10829 14.8498L7.5833 12.7998C7.67496 12.4165 7.51663 11.8748 7.24163 11.5915L5.5833 9.93317C4.6083 8.95817 4.92497 7.97484 6.2833 7.74151L8.40829 7.3915C8.76662 7.33317 9.19163 7.0165 9.34996 6.6915L10.525 4.3415C11.15 3.0665 12.1833 3.0665 12.825 4.3415Z" fill="#192B46"/>
<path d="M6.66675 4.7915H1.66675C1.32508 4.7915 1.04175 4.50817 1.04175 4.1665C1.04175 3.82484 1.32508 3.5415 1.66675 3.5415H6.66675C7.00841 3.5415 7.29175 3.82484 7.29175 4.1665C7.29175 4.50817 7.00841 4.7915 6.66675 4.7915Z" fill="#192B46"/>
<path d="M4.16675 16.4585H1.66675C1.32508 16.4585 1.04175 16.1752 1.04175 15.8335C1.04175 15.4918 1.32508 15.2085 1.66675 15.2085H4.16675C4.50841 15.2085 4.79175 15.4918 4.79175 15.8335C4.79175 16.1752 4.50841 16.4585 4.16675 16.4585Z" fill="#192B46"/>
<path d="M2.50008 10.625H1.66675C1.32508 10.625 1.04175 10.3417 1.04175 10C1.04175 9.65833 1.32508 9.375 1.66675 9.375H2.50008C2.84175 9.375 3.12508 9.65833 3.12508 10C3.12508 10.3417 2.84175 10.625 2.50008 10.625Z" fill="#192B46"/>
</svg>
