<svg width="17" height="17" viewBox="0 0 17 17" fill="none" xmlns="http://www.w3.org/2000/svg">
<path d="M7 0C5.93913 0 4.92172 0.421427 4.17157 1.17157C3.42143 1.92172 3 2.93913 3 4C3 5.06087 3.42143 6.07828 4.17157 6.82843C4.92172 7.57857 5.93913 8 7 8C8.06087 8 9.07828 7.57857 9.82843 6.82843C10.5786 6.07828 11 5.06087 11 4C11 2.93913 10.5786 1.92172 9.82843 1.17157C9.07828 0.421427 8.06087 0 7 0ZM2.009 9C1.74564 8.99895 1.48466 9.04989 1.24102 9.14992C0.997393 9.24994 0.775904 9.39708 0.589259 9.58289C0.402614 9.7687 0.254485 9.98952 0.153366 10.2327C0.0522479 10.4759 0.000129512 10.7366 0 11C0 12.691 0.833 13.966 2.135 14.797C3.417 15.614 5.145 16 7 16C7.41 16 7.816 15.981 8.21 15.943C7.42493 14.9674 6.99787 13.7522 7 12.5C7 11.17 7.472 9.95 8.257 9H2.01H2.009ZM17 12.5C17 13.6935 16.5259 14.8381 15.682 15.682C14.8381 16.5259 13.6935 17 12.5 17C11.3065 17 10.1619 16.5259 9.31802 15.682C8.47411 14.8381 8 13.6935 8 12.5C8 11.3065 8.47411 10.1619 9.31802 9.31802C10.1619 8.47411 11.3065 8 12.5 8C13.6935 8 14.8381 8.47411 15.682 9.31802C16.5259 10.1619 17 11.3065 17 12.5ZM12.976 9.86C12.9471 9.75595 12.8849 9.66423 12.799 9.59887C12.713 9.53352 12.608 9.49814 12.5 9.49814C12.392 9.49814 12.287 9.53352 12.201 9.59887C12.1151 9.66423 12.0529 9.75595 12.024 9.86L11.547 11.392H10C9.516 11.392 9.314 12.039 9.706 12.336L10.956 13.283L10.479 14.815C10.329 15.295 10.857 15.695 11.249 15.398L12.499 14.451L13.749 15.398C14.141 15.695 14.669 15.295 14.519 14.815L14.042 13.283L15.292 12.336C15.684 12.039 15.482 11.392 14.998 11.392H13.453L12.975 9.861L12.976 9.86Z" fill="#192B46"/>
</svg>
