<svg width="15" height="14" viewBox="0 0 15 14" fill="none" xmlns="http://www.w3.org/2000/svg">
<path fill-rule="evenodd" clip-rule="evenodd" d="M10.8333 0C11.0543 0 11.2663 0.0819442 11.4226 0.227806C11.5789 0.373667 11.6667 0.571498 11.6667 0.777778V1.55556H13.3333C13.7754 1.55556 14.1993 1.71944 14.5118 2.01117C14.8244 2.30289 15 2.69855 15 3.11111V7.41067C14.0474 6.61593 12.805 6.19169 11.5279 6.22505C10.2507 6.25841 9.03565 6.74684 8.1322 7.59006C7.22875 8.43328 6.70544 9.56731 6.66969 10.7593C6.63395 11.9514 7.08849 13.1109 7.94 14H1.66667C1.22464 14 0.800716 13.8361 0.488155 13.5444C0.175595 13.2527 0 12.857 0 12.4444V3.11111C0 2.69855 0.175595 2.30289 0.488155 2.01117C0.800716 1.71944 1.22464 1.55556 1.66667 1.55556H3.33333V0.777778C3.33333 0.571498 3.42113 0.373667 3.57741 0.227806C3.73369 0.0819442 3.94565 0 4.16667 0C4.38768 0 4.59964 0.0819442 4.75592 0.227806C4.9122 0.373667 5 0.571498 5 0.777778V1.55556H10V0.777778C10 0.571498 10.0878 0.373667 10.2441 0.227806C10.4004 0.0819442 10.6123 0 10.8333 0ZM11.6667 7.77778C12.5507 7.77778 13.3986 8.10555 14.0237 8.689C14.6488 9.27245 15 10.0638 15 10.8889C15 11.714 14.6488 12.5053 14.0237 13.0888C13.3986 13.6722 12.5507 14 11.6667 14C10.7826 14 9.93476 13.6722 9.30964 13.0888C8.68452 12.5053 8.33333 11.714 8.33333 10.8889C8.33333 10.0638 8.68452 9.27245 9.30964 8.689C9.93476 8.10555 10.7826 7.77778 11.6667 7.77778ZM11.6667 8.94444C11.4626 8.94447 11.2656 9.01441 11.113 9.141C10.9605 9.26759 10.863 9.44203 10.8392 9.63122L10.8333 9.72222V10.8889C10.8334 11.0794 10.9083 11.2633 11.0439 11.4056C11.1796 11.548 11.3665 11.6389 11.5692 11.6612L11.6667 11.6667H12.5C12.7124 11.6664 12.9167 11.5905 13.0711 11.4545C13.2256 11.3184 13.3185 11.1324 13.331 10.9345C13.3434 10.7366 13.2744 10.5417 13.1381 10.3897C13.0018 10.2377 12.8084 10.14 12.5975 10.1166L12.5 10.1111V9.72222C12.5 9.51594 12.4122 9.31811 12.2559 9.17225C12.0996 9.02639 11.8877 8.94444 11.6667 8.94444ZM4.58333 8.55556H4.16667C3.94565 8.55556 3.73369 8.6375 3.57741 8.78336C3.42113 8.92922 3.33333 9.12705 3.33333 9.33333C3.33333 9.53961 3.42113 9.73744 3.57741 9.88331C3.73369 10.0292 3.94565 10.1111 4.16667 10.1111H4.58333C4.80435 10.1111 5.01631 10.0292 5.17259 9.88331C5.32887 9.73744 5.41667 9.53961 5.41667 9.33333C5.41667 9.12705 5.32887 8.92922 5.17259 8.78336C5.01631 8.6375 4.80435 8.55556 4.58333 8.55556ZM6.66667 5.44444H4.16667C3.95427 5.44466 3.74997 5.52057 3.59553 5.65666C3.44108 5.79275 3.34814 5.97874 3.33569 6.17664C3.32324 6.37454 3.39223 6.56941 3.52855 6.72143C3.66488 6.87344 3.85825 6.97114 4.06917 6.99456L4.16667 7H6.66667C6.87907 6.99978 7.08336 6.92387 7.23781 6.78779C7.39225 6.6517 7.4852 6.4657 7.49764 6.2678C7.51009 6.0699 7.4411 5.87504 7.30478 5.72302C7.16845 5.571 6.97508 5.4733 6.76417 5.44989L6.66667 5.44444Z" fill="white"/>
</svg>
